<svg width="16" height="16" viewBox="0 0 16 16" fill="none" xmlns="http://www.w3.org/2000/svg">
<g id="alarm-light">
<path id="Vector" d="M4 4.60002L2.58 3.18669L3.52 2.24669L4.93333 3.66669L4 4.60002ZM8.66667 0.666687V2.66669H7.33333V0.666687H8.66667ZM13.42 3.18669L12 4.60002L11.0667 3.66669L12.48 2.24669L13.42 3.18669ZM3 7.00002V8.33335H1V7.00002H3ZM13 7.00002H15V8.33335H13V7.00002ZM4 13.3334H12C12.3536 13.3334 12.6928 13.4738 12.9428 13.7239C13.1929 13.9739 13.3333 14.3131 13.3333 14.6667H2.66667C2.66667 14.3131 2.80714 13.9739 3.05719 13.7239C3.30724 13.4738 3.64638 13.3334 4 13.3334ZM8 3.33335C9.06087 3.33335 10.0783 3.75478 10.8284 4.50493C11.5786 5.25507 12 6.27249 12 7.33335V12.6667H4V7.33335C4 6.27249 4.42143 5.25507 5.17157 4.50493C5.92172 3.75478 6.93913 3.33335 8 3.33335Z" fill="white"/>
</g>
</svg>
