<svg width="56" height="56" viewBox="0 0 56 56" fill="none" xmlns="http://www.w3.org/2000/svg">
<g id="alert-circle-outline">
<path id="Vector" d="M25.6667 35H30.3334V39.6667H25.6667V35ZM25.6667 16.3334H30.3334V30.3334H25.6667V16.3334ZM28.0001 4.66669C15.0967 4.66669 4.66675 15.1667 4.66675 28C4.66675 34.1884 7.12507 40.1233 11.5009 44.4992C13.6676 46.6659 16.2399 48.3846 19.0708 49.5572C21.9017 50.7298 24.9359 51.3334 28.0001 51.3334C34.1885 51.3334 40.1234 48.875 44.4992 44.4992C48.8751 40.1233 51.3334 34.1884 51.3334 28C51.3334 24.9358 50.7299 21.9017 49.5573 19.0707C48.3847 16.2398 46.6659 13.6676 44.4992 11.5009C42.3325 9.33416 39.7603 7.61544 36.9294 6.44283C34.0984 5.27022 31.0643 4.66669 28.0001 4.66669ZM28.0001 46.6667C23.0494 46.6667 18.3014 44.7 14.8008 41.1993C11.3001 37.6987 9.33342 32.9507 9.33342 28C9.33342 23.0493 11.3001 18.3014 14.8008 14.8007C18.3014 11.3 23.0494 9.33335 28.0001 9.33335C32.9508 9.33335 37.6987 11.3 41.1994 14.8007C44.7001 18.3014 46.6668 23.0493 46.6668 28C46.6668 32.9507 44.7001 37.6987 41.1994 41.1993C37.6987 44.7 32.9508 46.6667 28.0001 46.6667Z" fill="#FFB800"/>
</g>
</svg>
