<svg width="20" height="20" viewBox="0 0 20 20" fill="none" xmlns="http://www.w3.org/2000/svg">
<g id="chili-mild">
<path id="Vector" d="M13.3327 8.33341V18.3334C13.3327 18.3334 6.66602 16.6667 6.66602 9.16675V8.33341C6.66602 7.72508 6.99935 7.19175 7.49935 6.90008L8.54102 7.50008L9.99935 6.66675L11.4577 7.50008L12.4993 6.90008C12.9993 7.19175 13.3327 7.72508 13.3327 8.33341ZM9.99935 5.41675L11.4577 6.25008L12.7243 5.52508C12.266 4.71675 11.591 4.11675 10.8077 3.87508C10.6577 2.63341 9.61602 1.66675 8.33268 1.66675V3.33341C8.69935 3.33341 8.99935 3.57508 9.11602 3.90841C8.35768 4.16675 7.71602 4.75008 7.27435 5.52508L8.54102 6.25008L9.99935 5.41675Z" fill="white"/>
</g>
</svg>
