<svg width="16" height="16" viewBox="0 0 16 16" fill="none" xmlns="http://www.w3.org/2000/svg">
<g id="clock">
<path id="Vector" d="M7.99998 1.33334C7.1245 1.33334 6.25759 1.50578 5.44876 1.84081C4.63992 2.17584 3.90499 2.66691 3.28593 3.28596C2.03569 4.53621 1.33331 6.2319 1.33331 8.00001C1.33331 9.76812 2.03569 11.4638 3.28593 12.7141C3.90499 13.3331 4.63992 13.8242 5.44876 14.1592C6.25759 14.4942 7.1245 14.6667 7.99998 14.6667C9.76809 14.6667 11.4638 13.9643 12.714 12.7141C13.9643 11.4638 14.6666 9.76812 14.6666 8.00001C14.6666 7.12453 14.4942 6.25762 14.1592 5.44879C13.8241 4.63995 13.3331 3.90502 12.714 3.28596C12.095 2.66691 11.36 2.17584 10.5512 1.84081C9.74236 1.50578 8.87546 1.33334 7.99998 1.33334ZM10.8 10.8L7.33331 8.66668V4.66668H8.33331V8.13334L11.3333 9.93334L10.8 10.8Z" fill="#F5F5F5"/>
</g>
</svg>
