<svg width="14" height="15" viewBox="0 0 14 15" fill="none" xmlns="http://www.w3.org/2000/svg">
<g id="comment-text-multiple" clip-path="url(#clip0_88_551)">
<path id="Vector" d="M1.75016 9.4261H0.583496V2.4261C0.583496 2.11668 0.706412 1.81994 0.925205 1.60115C1.144 1.38235 1.44074 1.25944 1.75016 1.25944H11.0835V2.4261H1.75016V9.4261ZM7.00016 14.0928C6.84545 14.0928 6.69708 14.0313 6.58768 13.9219C6.47829 13.8125 6.41683 13.6641 6.41683 13.5094V11.7594H4.0835C3.77408 11.7594 3.47733 11.6365 3.25854 11.4177C3.03975 11.1989 2.91683 10.9022 2.91683 10.5928V4.75944C2.91683 4.45002 3.03975 4.15327 3.25854 3.93448C3.47733 3.71569 3.77408 3.59277 4.0835 3.59277H12.2502C12.5596 3.59277 12.8563 3.71569 13.0751 3.93448C13.2939 4.15327 13.4168 4.45002 13.4168 4.75944V10.5928C13.4168 10.9022 13.2939 11.1989 13.0751 11.4177C12.8563 11.6365 12.5596 11.7594 12.2502 11.7594H9.8585L7.70016 13.9236C7.5835 14.0286 7.4435 14.0928 7.29183 14.0928H7.00016ZM5.25016 5.9261V7.09277H11.0835V5.9261H5.25016ZM5.25016 8.25944V9.4261H9.91683V8.25944H5.25016Z" fill="#696969"/>
</g>
<defs>
<clipPath id="clip0_88_551">
<rect width="14" height="14" fill="white" transform="translate(0 0.676102)"/>
</clipPath>
</defs>
</svg>
