<svg width="48" height="48" viewBox="0 0 48 48" fill="none" xmlns="http://www.w3.org/2000/svg">
<path d="M21.6665 31H26.3332V35.6667H21.6665V31ZM21.6665 12.3333H26.3332V26.3333H21.6665V12.3333ZM23.9998 0.666664C11.0965 0.666664 0.666504 11.1667 0.666504 24C0.666504 30.1884 3.12483 36.1233 7.50068 40.4992C9.66738 42.6659 12.2396 44.3846 15.0706 45.5572C17.9015 46.7298 20.9357 47.3333 23.9998 47.3333C30.1882 47.3333 36.1231 44.875 40.499 40.4992C44.8748 36.1233 47.3332 30.1884 47.3332 24C47.3332 20.9358 46.7296 17.9016 45.557 15.0707C44.3844 12.2398 42.6657 9.66754 40.499 7.50084C38.3323 5.33414 35.7601 3.61542 32.9291 2.44281C30.0982 1.2702 27.064 0.666664 23.9998 0.666664ZM23.9998 42.6667C19.0491 42.6667 14.3012 40.7 10.8005 37.1993C7.29983 33.6986 5.33317 28.9507 5.33317 24C5.33317 19.0493 7.29983 14.3014 10.8005 10.8007C14.3012 7.29999 19.0491 5.33333 23.9998 5.33333C28.9505 5.33333 33.6985 7.29999 37.1992 10.8007C40.6998 14.3014 42.6665 19.0493 42.6665 24C42.6665 28.9507 40.6998 33.6986 37.1992 37.1993C33.6985 40.7 28.9505 42.6667 23.9998 42.6667Z" fill="#FFB800"/>
</svg>
