<svg width="24" height="24" viewBox="0 0 24 24" fill="none" xmlns="http://www.w3.org/2000/svg">
<g id="Frame 83">
<g id="Group">
<path id="Vector" d="M3.76514 3C3.34257 3 3 3.34257 3 3.76514C3 4.18772 3.34257 4.53029 3.76514 4.53029H4.14114C4.48276 4.53029 4.78299 4.75676 4.87684 5.08523L7.3032 13.5775C7.58475 14.5629 8.48544 15.2423 9.51031 15.2423H16.5017C17.4403 15.2423 18.2844 14.6709 18.633 13.7994L20.8891 8.1592C21.2911 7.15402 20.5507 6.06058 19.4682 6.06058H6.74703L6.34824 4.66483C6.0667 3.6794 5.166 3 4.14114 3H3.76514Z" fill="black"/>
<path id="Vector_2" d="M8.88631 21.0009C10.1541 21.0009 11.1817 19.9731 11.1817 18.7054C11.1817 17.4377 10.1541 16.41 8.88631 16.41C7.61858 16.41 6.59088 17.4377 6.59088 18.7054C6.59088 19.9731 7.61858 21.0009 8.88631 21.0009Z" fill="black"/>
<path id="Vector_3" d="M17.0075 21.0009C18.2752 21.0009 19.3029 19.9731 19.3029 18.7054C19.3029 17.4377 18.2752 16.41 17.0075 16.41C15.7397 16.41 14.712 17.4377 14.712 18.7054C14.712 19.9731 15.7397 21.0009 17.0075 21.0009Z" fill="black"/>
</g>
</g>
</svg>
