<svg width="28" height="10" viewBox="0 0 28 10" fill="none" xmlns="http://www.w3.org/2000/svg">
<path d="M1.01625 10C0.920917 10 0.842917 9.96967 0.78225 9.909C0.721583 9.84833 0.69125 9.77033 0.69125 9.675V1.225C0.69125 1.12967 0.721583 1.05167 0.78225 0.991C0.842917 0.930333 0.920917 0.899999 1.01625 0.899999H2.39425C2.54158 0.899999 2.64558 0.934666 2.70625 1.004C2.77558 1.06467 2.81892 1.11233 2.83625 1.147L6.00825 6.152V1.225C6.00825 1.12967 6.03858 1.05167 6.09925 0.991C6.15992 0.930333 6.23792 0.899999 6.33325 0.899999H7.89325C7.98858 0.899999 8.06658 0.930333 8.12725 0.991C8.18792 1.05167 8.21825 1.12967 8.21825 1.225V9.675C8.21825 9.76167 8.18792 9.83967 8.12725 9.909C8.06658 9.96967 7.98858 10 7.89325 10H6.50225C6.36358 10 6.25958 9.96533 6.19025 9.896C6.12958 9.82667 6.09058 9.779 6.07325 9.753L2.90125 4.943V9.675C2.90125 9.77033 2.87092 9.84833 2.81025 9.909C2.74958 9.96967 2.67158 10 2.57625 10H1.01625ZM10.36 10C10.2647 10 10.1867 9.96967 10.126 9.909C10.0653 9.84833 10.035 9.77033 10.035 9.675V1.225C10.035 1.12967 10.0653 1.05167 10.126 0.991C10.1867 0.930333 10.2647 0.899999 10.36 0.899999H16.431C16.5263 0.899999 16.6043 0.930333 16.665 0.991C16.7257 1.05167 16.756 1.12967 16.756 1.225V2.447C16.756 2.54233 16.7257 2.62033 16.665 2.681C16.6043 2.74167 16.5263 2.772 16.431 2.772H12.284V4.527H16.145C16.2403 4.527 16.3183 4.56167 16.379 4.631C16.4397 4.69167 16.47 4.76967 16.47 4.865V5.996C16.47 6.08267 16.4397 6.16067 16.379 6.23C16.3183 6.29067 16.2403 6.321 16.145 6.321H12.284V8.128H16.535C16.6303 8.128 16.7083 8.15833 16.769 8.219C16.8297 8.27967 16.86 8.35767 16.86 8.453V9.675C16.86 9.77033 16.8297 9.84833 16.769 9.909C16.7083 9.96967 16.6303 10 16.535 10H10.36ZM19.7937 10C19.6464 10 19.5294 9.95667 19.4427 9.87C19.3561 9.78333 19.3041 9.68367 19.2867 9.571L17.8697 1.264C17.8611 1.24667 17.8567 1.22933 17.8567 1.212C17.8567 1.19467 17.8567 1.18167 17.8567 1.173C17.8567 1.10367 17.8827 1.043 17.9347 0.991C17.9954 0.930333 18.0604 0.899999 18.1297 0.899999H19.7417C19.9844 0.899999 20.1187 0.995333 20.1447 1.186L20.9897 6.269L21.9257 3.266C21.9517 3.19667 21.9951 3.123 22.0557 3.045C22.1164 2.95833 22.2161 2.915 22.3547 2.915H23.2907C23.4381 2.915 23.5421 2.95833 23.6027 3.045C23.6634 3.123 23.7024 3.19667 23.7197 3.266L24.6557 6.256L25.5007 1.186C25.5267 0.995333 25.6611 0.899999 25.9037 0.899999H27.5157C27.5937 0.899999 27.6587 0.930333 27.7107 0.991C27.7627 1.043 27.7887 1.10367 27.7887 1.173C27.7887 1.18167 27.7887 1.19467 27.7887 1.212C27.7887 1.22933 27.7887 1.24667 27.7887 1.264L26.3717 9.571C26.3544 9.68367 26.3024 9.78333 26.2157 9.87C26.1291 9.95667 26.0121 10 25.8647 10H24.6297C24.4824 10 24.3697 9.961 24.2917 9.883C24.2137 9.805 24.1617 9.73133 24.1357 9.662L22.8227 5.944L21.5097 9.662C21.4837 9.73133 21.4317 9.805 21.3537 9.883C21.2844 9.961 21.1761 10 21.0287 10H19.7937Z" fill="white"/>
</svg>
