<svg width="24" height="24" viewBox="0 0 24 24" fill="none" xmlns="http://www.w3.org/2000/svg">
<path d="M19.3636 16.7619V17.5714H4.63636V16.7619L6.27273 15.1429V10.2857C6.27273 7.77619 7.93364 5.56619 10.3636 4.85381C10.3636 4.77286 10.3636 4.7 10.3636 4.61905C10.3636 4.18965 10.536 3.77784 10.8429 3.47421C11.1498 3.17058 11.566 3 12 3C12.434 3 12.8502 3.17058 13.1571 3.47421C13.464 3.77784 13.6364 4.18965 13.6364 4.61905C13.6364 4.7 13.6364 4.77286 13.6364 4.85381C16.0664 5.56619 17.7273 7.77619 17.7273 10.2857V15.1429L19.3636 16.7619ZM13.6364 18.381C13.6364 18.8104 13.464 19.2222 13.1571 19.5258C12.8502 19.8294 12.434 20 12 20C11.566 20 11.1498 19.8294 10.8429 19.5258C10.536 19.2222 10.3636 18.8104 10.3636 18.381M18.3409 3.96333L17.1791 5.11286C18.5782 6.48095 19.3636 8.34286 19.3636 10.2857H21C21 7.91381 20.0509 5.63095 18.3409 3.96333ZM3 10.2857H4.63636C4.63636 8.34286 5.42182 6.48095 6.82091 5.11286L5.65909 3.96333C3.94909 5.63095 3 7.91381 3 10.2857Z" fill="black"/>
</svg>
