<svg width="16" height="16" viewBox="0 0 16 16" fill="none" xmlns="http://www.w3.org/2000/svg">
<g id="weight-gram">
<path id="Vector" d="M13.3 7.04C13.1666 6.44667 12.6333 6 12 6H10.3066C10.54 5.60667 10.6666 5.15333 10.6666 4.66667C10.6666 3.95942 10.3857 3.28115 9.8856 2.78105C9.3855 2.28095 8.70722 2 7.99998 2C7.29274 2 6.61446 2.28095 6.11436 2.78105C5.61426 3.28115 5.33331 3.95942 5.33331 4.66667C5.33331 5.15333 5.45998 5.60667 5.69331 6H3.99998C3.36665 6 2.83331 6.44667 2.69998 7.04C1.35998 12.38 1.33331 12.52 1.33331 12.6667C1.33331 13.0203 1.47379 13.3594 1.72384 13.6095C1.97389 13.8595 2.31302 14 2.66665 14H13.3333C13.6869 14 14.0261 13.8595 14.2761 13.6095C14.5262 13.3594 14.6666 13.0203 14.6666 12.6667C14.6666 12.52 14.64 12.38 13.3 7.04ZM7.99998 3.33333C8.3536 3.33333 8.69274 3.47381 8.94279 3.72386C9.19284 3.97391 9.33331 4.31304 9.33331 4.66667C9.33331 5.02029 9.19284 5.35943 8.94279 5.60948C8.69274 5.85952 8.3536 6 7.99998 6C7.64636 6 7.30722 5.85952 7.05717 5.60948C6.80712 5.35943 6.66665 5.02029 6.66665 4.66667C6.66665 4.31304 6.80712 3.97391 7.05717 3.72386C7.30722 3.47381 7.64636 3.33333 7.99998 3.33333ZM9.99998 8.66667H7.33331V11.3333H8.66665V9.33333H9.99998V12.6667H7.33331C6.59331 12.6667 5.99998 12.0733 5.99998 11.3333V8.66667C5.99998 7.92667 6.59331 7.33333 7.33331 7.33333H9.99998V8.66667Z" fill="white"/>
</g>
</svg>
