<svg width="56" height="56" viewBox="0 0 56 56" fill="none" xmlns="http://www.w3.org/2000/svg">
<path d="M27.9998 28C23.2631 28 18.8998 29.5633 15.3998 32.2L11.1998 26.6C15.8898 23.0767 21.6998 21 27.9998 21C34.2998 21 40.1098 23.0767 44.7998 26.6L41.8131 30.5667C40.9498 30.73 40.0865 30.9633 39.2931 31.29C36.0265 29.1667 32.1531 28 27.9998 28ZM48.9998 21L53.1998 15.4C46.1765 10.1267 37.4498 7 27.9998 7C18.5498 7 9.82314 10.1267 2.7998 15.4L6.9998 21C12.8331 16.6133 20.1131 14 27.9998 14C35.8865 14 43.1665 16.6133 48.9998 21ZM27.9998 35C24.8498 35 21.9331 36.05 19.5998 37.8L27.9998 49L30.4265 45.7567C30.3331 45.29 30.3331 44.8233 30.3331 44.3333C30.3331 41.2067 31.3598 38.3367 33.1098 36.0033C31.4998 35.3733 29.7965 35 27.9998 35ZM49.2798 36.0733L44.3331 41.0433L39.3865 36.0967L36.0965 39.3867L41.0431 44.3333L36.0965 49.28L39.3865 52.5933L44.3331 47.6233L49.2798 52.5933L52.5931 49.28L47.6231 44.3333L52.5931 39.3867L49.2798 36.0733Z" fill="#EB3800"/>
</svg>
