<svg width="56" height="56" viewBox="0 0 56 56" fill="none" xmlns="http://www.w3.org/2000/svg">
<g id="wifi-remove">
<path id="Vector" d="M28.0001 28C23.2634 28 18.9 29.5633 15.4 32.2L11.2 26.6C15.89 23.0767 21.7001 21 28.0001 21C34.3001 21 40.1101 23.0767 44.8001 26.6L41.8134 30.5667C40.9501 30.73 40.0867 30.9633 39.2934 31.29C36.0267 29.1667 32.1534 28 28.0001 28ZM49 21L53.2001 15.4C46.1767 10.1267 37.4501 7 28.0001 7C18.55 7 9.82338 10.1267 2.80005 15.4L7.00005 21C12.8334 16.6133 20.1134 14 28.0001 14C35.8867 14 43.1667 16.6133 49 21ZM28.0001 35C24.85 35 21.9334 36.05 19.6 37.8L28.0001 49L30.4267 45.7567C30.3334 45.29 30.3334 44.8233 30.3334 44.3333C30.3334 41.2067 31.3601 38.3367 33.1101 36.0033C31.5 35.3733 29.7967 35 28.0001 35ZM49.2801 36.0733L44.3334 41.0433L39.3867 36.0967L36.0967 39.3867L41.0434 44.3333L36.0967 49.28L39.3867 52.5933L44.3334 47.6233L49.2801 52.5933L52.5934 49.28L47.6234 44.3333L52.5934 39.3867L49.2801 36.0733Z" fill="#EB3800"/>
</g>
</svg>
